Cantarell-Regular_20180527_Sketch1.ufo
<glyph name="F" format="1">
  <advance width="588"/>
  <unicode hex="0046"/>
  <note>
    F
  </note>
  <outline>
    <contour>
      <point x="189" y="0" type="line"/>
      <point x="189" y="694" type="line"/>
      <point x="106" y="694" type="line"/>
      <point x="106" y="0" type="line"/>
    </contour>
    <contour>
      <point x="508" y="322" type="line"/>
      <point x="508" y="394" type="line"/>
      <point x="138" y="394" type="line"/>
      <point x="138" y="322" type="line"/>
    </contour>
    <contour>
      <point x="537" y="622" type="line"/>
      <point x="537" y="694" type="line"/>
      <point x="138" y="694" type="line"/>
      <point x="138" y="622" type="line"/>
    </contour>
    <contour>
      <point x="273" y="694" type="move" name="top"/>
    </contour>
    <contour>
      <point x="273" y="0" type="move" name="bottom"/>
    </contour>
  </outline>
</glyph>
<glyph name="H" format="1">
  <advance width="749"/>
  <unicode hex="0048"/>
  <note>
    H
  </note>
  <outline>
    <contour>
      <point x="643" y="0" type="line"/>
      <point x="643" y="694" type="line"/>
      <point x="560" y="694" type="line"/>
      <point x="560" y="0" type="line"/>
    </contour>
    <contour>
      <point x="189" y="0" type="line"/>
      <point x="189" y="694" type="line"/>
      <point x="106" y="694" type="line"/>
      <point x="106" y="0" type="line"/>
    </contour>
    <contour>
      <point x="608" y="323" type="line"/>
      <point x="608" y="395" type="line"/>
      <point x="138" y="395" type="line"/>
      <point x="138" y="323" type="line"/>
    </contour>
    <contour>
      <point x="375" y="0" type="move" name="bottom"/>
    </contour>
    <contour>
      <point x="375" y="694" type="move" name="top"/>
    </contour>
    <contour>
      <point x="17" y="694" type="move" name="topleft"/>
    </contour>
    <contour>
      <point x="375" y="539" type="move" name="center"/>
    </contour>
  </outline>
</glyph>
<glyph name="R" format="1">
  <advance width="655"/>
  <unicode hex="0052"/>
  <note>
    R
  </note>
  <outline>
    <contour>
      <point x="189" y="0" type="line"/>
      <point x="189" y="694" type="line"/>
      <point x="106" y="694" type="line"/>
      <point x="106" y="0" type="line"/>
    </contour>
    <contour>
      <point x="326" y="281" type="line" smooth="yes"/>
      <point x="470" y="281"/>
      <point x="568" y="372"/>
      <point x="568" y="500" type="curve" smooth="yes"/>
      <point x="568" y="622"/>
      <point x="478" y="694"/>
      <point x="336" y="694" type="curve" smooth="yes"/>
      <point x="159" y="694" type="line"/>
      <point x="159" y="622" type="line"/>
      <point x="326" y="622" type="line" smooth="yes"/>
      <point x="425" y="622"/>
      <point x="483" y="571"/>
      <point x="483" y="485" type="curve" smooth="yes"/>
      <point x="483" y="400"/>
      <point x="431" y="351"/>
      <point x="336" y="351" type="curve" smooth="yes"/>
      <point x="159" y="351" type="line"/>
      <point x="159" y="281" type="line"/>
    </contour>
    <contour>
      <point x="608" y="0" type="line"/>
      <point x="416" y="328" type="line"/>
      <point x="321" y="328" type="line"/>
      <point x="509" y="0" type="line"/>
    </contour>
    <contour>
      <point x="323" y="694" type="move" name="top"/>
    </contour>
    <contour>
      <point x="323" y="0" type="move" name="bottom"/>
    </contour>
  </outline>
</glyph>
<glyph name="U" format="1">
  <advance width="714"/>
  <unicode hex="0055"/>
  <note>
    U
  </note>
  <outline>
    <contour>
      <point x="513" y="-10"/>
      <point x="621" y="92"/>
      <point x="621" y="246" type="curve" smooth="yes"/>
      <point x="621" y="694" type="line"/>
      <point x="540" y="694" type="line"/>
      <point x="540" y="236" type="line" smooth="yes"/>
      <point x="540" y="127"/>
      <point x="475" y="63"/>
      <point x="363" y="63" type="curve" smooth="yes"/>
      <point x="245" y="63"/>
      <point x="177" y="133"/>
      <point x="177" y="253" type="curve" smooth="yes"/>
      <point x="177" y="694" type="line"/>
      <point x="94" y="694" type="line"/>
      <point x="94" y="243" type="line" smooth="yes"/>
      <point x="94" y="90"/>
      <point x="195" y="-10"/>
      <point x="352" y="-10" type="curve" smooth="yes"/>
    </contour>
    <contour>
      <point x="451" y="10" type="move" name="ogonek"/>
    </contour>
    <contour>
      <point x="357" y="694" type="move" name="top"/>
    </contour>
    <contour>
      <point x="692" y="694" type="move" name="topright"/>
    </contour>
    <contour>
      <point x="357" y="0" type="move" name="bottom"/>
    </contour>
  </outline>
</glyph>
<glyph name="h" format="1">
  <advance width="570"/>
  <unicode hex="0068"/>
  <note>
    h
  </note>
  <outline>
    <contour>
      <point x="165" y="0" type="line"/>
      <point x="165" y="739" type="line"/>
      <point x="85" y="739" type="line"/>
      <point x="85" y="0" type="line"/>
    </contour>
    <contour>
      <point x="494" y="0" type="line"/>
      <point x="494" y="316" type="line" smooth="yes"/>
      <point x="494" y="423"/>
      <point x="423" y="492"/>
      <point x="315" y="492" type="curve" smooth="yes"/>
      <point x="245" y="492"/>
      <point x="176" y="462"/>
      <point x="125" y="403" type="curve"/>
      <point x="144" y="352" type="line"/>
      <point x="184" y="399"/>
      <point x="237" y="422"/>
      <point x="293" y="422" type="curve" smooth="yes"/>
      <point x="371" y="422"/>
      <point x="414" y="378"/>
      <point x="414" y="300" type="curve" smooth="yes"/>
      <point x="414" y="0" type="line"/>
    </contour>
    <contour>
      <point x="163" y="593" type="move" name="center"/>
    </contour>
    <contour>
      <point x="285" y="0" type="move" name="bottom"/>
    </contour>
    <contour>
      <point x="291" y="739" type="move" name="top"/>
    </contour>
  </outline>
</glyph>
<glyph name="o" format="1">
  <advance width="569"/>
  <unicode hex="006F"/>
  <note>
    o
  </note>
  <outline>
    <contour>
      <point x="420" y="-10"/>
      <point x="516" y="93"/>
      <point x="516" y="247" type="curve" smooth="yes"/>
      <point x="516" y="396"/>
      <point x="427" y="492"/>
      <point x="290" y="492" type="curve" smooth="yes"/>
      <point x="148" y="492"/>
      <point x="53" y="390"/>
      <point x="53" y="236" type="curve" smooth="yes"/>
      <point x="53" y="87"/>
      <point x="141" y="-10"/>
      <point x="278" y="-10" type="curve" smooth="yes"/>
    </contour>
    <contour>
      <point x="196" y="60"/>
      <point x="133" y="135"/>
      <point x="133" y="246" type="curve" smooth="yes"/>
      <point x="133" y="353"/>
      <point x="190" y="422"/>
      <point x="279" y="422" type="curve" smooth="yes"/>
      <point x="372" y="422"/>
      <point x="436" y="346"/>
      <point x="436" y="236" type="curve" smooth="yes"/>
      <point x="436" y="130"/>
      <point x="378" y="60"/>
      <point x="289" y="60" type="curve" smooth="yes"/>
    </contour>
    <contour>
      <point x="285" y="0" type="move" name="bottom"/>
    </contour>
    <contour>
      <point x="370" y="10" type="move" name="ogonek"/>
    </contour>
    <contour>
      <point x="285" y="482" type="move" name="top"/>
    </contour>
    <contour>
      <point x="509" y="482" type="move" name="topright"/>
    </contour>
    <contour>
      <point x="285" y="241" type="move" name="center"/>
    </contour>
  </outline>
</glyph>
<glyph name="Schwa" format="1">
  <advance width="150"/>
  <unicode hex="018F"/>
  <outline>
    <contour>
      <point x="237" y="700"/>
      <point x="159" y="680"/>
      <point x="89" y="640" type="curve"/>
      <point x="108" y="579" type="line"/>
      <point x="172" y="610"/>
      <point x="242" y="627"/>
      <point x="310" y="627" type="curve" smooth="yes"/>
      <point x="488" y="627"/>
      <point x="596" y="521"/>
      <point x="596" y="329" type="curve" smooth="yes"/>
      <point x="596" y="158"/>
      <point x="511" y="63"/>
      <point x="364" y="63" type="curve" smooth="yes"/>
      <point x="224" y="63"/>
      <point x="142" y="148"/>
      <point x="142" y="300" type="curve"/>
      <point x="617" y="300" type="line"/>
      <point x="617" y="368" type="line"/>
      <point x="69" y="368" type="line"/>
      <point x="67" y="345"/>
      <point x="65" y="312"/>
      <point x="65" y="291" type="curve" smooth="yes"/>
      <point x="65" y="111"/>
      <point x="181" y="-10"/>
      <point x="357" y="-10" type="curve" smooth="yes"/>
      <point x="548" y="-10"/>
      <point x="681" y="132"/>
      <point x="681" y="347" type="curve" smooth="yes"/>
      <point x="681" y="566"/>
      <point x="543" y="700"/>
      <point x="324" y="700" type="curve" smooth="yes"/>
    </contour>
    <contour>
      <point x="371" y="694" type="move" name="top"/>
    </contour>
    <contour>
      <point x="371" y="0" type="move" name="bottom"/>
    </contour>
  </outline>
</glyph>
<glyph name="acutecomb" format="1">
  <advance width="255"/>
  <unicode hex="0301"/>
  <outline>
    <contour>
      <point x="219" y="694" type="line"/>
      <point x="156" y="745" type="line"/>
      <point x="52" y="589" type="line"/>
      <point x="89" y="560" type="line"/>
    </contour>
    <contour>
      <point x="117" y="704" type="move" name="top"/>
    </contour>
    <contour>
      <point x="0" y="546" type="move" name="top_dot"/>
    </contour>
    <contour>
      <point x="83" y="482" type="move" name="_top"/>
    </contour>
  </outline>
</glyph>
<glyph name="uni0306" format="1">
  <advance width="414"/>
  <unicode hex="0306"/>
  <outline>
    <contour>
      <point x="282" y="561"/>
      <point x="343" y="619"/>
      <point x="356" y="705" type="curve"/>
      <point x="317" y="731" type="line"/>
      <point x="310" y="668"/>
      <point x="270" y="626"/>
      <point x="217" y="626" type="curve" smooth="yes"/>
      <point x="166" y="626"/>
      <point x="127" y="668"/>
      <point x="119" y="730" type="curve"/>
      <point x="55" y="693" type="line"/>
      <point x="69" y="614"/>
      <point x="129" y="561"/>
      <point x="205" y="561" type="curve" smooth="yes"/>
    </contour>
    <contour>
      <point x="208" y="681" type="move" name="top"/>
    </contour>
    <contour>
      <point x="208" y="482" type="move" name="_top"/>
    </contour>
  </outline>
</glyph>
<glyph name="uni030D" format="1">
  <advance width="250"/>
  <unicode hex="030D"/>
  <outline>
    <contour>
      <point x="90" y="750" type="line"/>
      <point x="96" y="566" type="line"/>
      <point x="154" y="566" type="line"/>
      <point x="160" y="750" type="line"/>
    </contour>
    <contour>
      <point x="125" y="750" type="move" name="top"/>
    </contour>
    <contour>
      <point x="125" y="482" type="move" name="_top"/>
    </contour>
  </outline>
</glyph>
<glyph name="uni0324" format="1">
  <advance width="472"/>
  <unicode hex="0324"/>
  <outline>
    <contour>
      <point x="172" y="-195"/>
      <point x="193" y="-174"/>
      <point x="193" y="-138" type="curve" smooth="yes"/>
      <point x="193" y="-102"/>
      <point x="172" y="-81"/>
      <point x="136" y="-81" type="curve" smooth="yes"/>
      <point x="100" y="-81"/>
      <point x="79" y="-102"/>
      <point x="79" y="-138" type="curve" smooth="yes"/>
      <point x="79" y="-174"/>
      <point x="100" y="-195"/>
      <point x="136" y="-195" type="curve" smooth="yes"/>
    </contour>
    <contour>
      <point x="372" y="-195"/>
      <point x="393" y="-174"/>
      <point x="393" y="-138" type="curve" smooth="yes"/>
      <point x="393" y="-102"/>
      <point x="372" y="-81"/>
      <point x="336" y="-81" type="curve" smooth="yes"/>
      <point x="300" y="-81"/>
      <point x="279" y="-102"/>
      <point x="279" y="-138" type="curve" smooth="yes"/>
      <point x="279" y="-174"/>
      <point x="300" y="-195"/>
      <point x="336" y="-195" type="curve" smooth="yes"/>
    </contour>
    <contour>
      <point x="236" y="0" type="move" name="_bottom"/>
    </contour>
    <contour>
      <point x="236" y="-195" type="move" name="bottom"/>
    </contour>
  </outline>
</glyph>
<glyph name="strokeshortcomb" format="1">
  <advance width="468"/>
  <unicode hex="0335"/>
  <outline>
    <contour>
      <point x="366" y="269" type="line"/>
      <point x="366" y="327" type="line"/>
      <point x="89" y="327" type="line"/>
      <point x="89" y="269" type="line"/>
    </contour>
    <contour>
      <point x="228" y="298" type="move" name="_center"/>
    </contour>
  </outline>
</glyph>
<glyph name="gamma" format="1">
  <advance width="538"/>
  <unicode hex="03B3"/>
  <outline>
    <contour>
      <point x="214" y="52" type="line" smooth="yes"/>
      <point x="237" y="-18"/>
      <point x="243" y="-65"/>
      <point x="243" y="-100" type="curve" smooth="yes"/>
      <point x="243" y="-133"/>
      <point x="242" y="-163"/>
      <point x="237" y="-217" type="curve"/>
      <point x="324" y="-217" type="line"/>
      <point x="324" y="-146" type="line" smooth="yes"/>
      <point x="324" y="-93"/>
      <point x="321" y="-49"/>
      <point x="316" y="-10" type="curve"/>
      <point x="369" y="96" type="line" smooth="yes"/>
      <point x="429" y="216"/>
      <point x="477" y="333"/>
      <point x="512" y="482" type="curve"/>
      <point x="433" y="482" type="line"/>
      <point x="404" y="349"/>
      <point x="361" y="230"/>
      <point x="306" y="114" type="curve" smooth="yes"/>
      <point x="260" y="16" type="line"/>
      <point x="301" y="16" type="line"/>
      <point x="191" y="376" type="line" smooth="yes"/>
      <point x="169" y="447"/>
      <point x="150" y="488"/>
      <point x="87" y="488" type="curve" smooth="yes"/>
      <point x="61" y="488"/>
      <point x="31" y="478"/>
      <point x="5" y="460" type="curve"/>
      <point x="23" y="409" type="line"/>
      <point x="36" y="417"/>
      <point x="47" y="421"/>
      <point x="59" y="421" type="curve" smooth="yes"/>
      <point x="80" y="421"/>
      <point x="94" y="408"/>
      <point x="109" y="364" type="curve" smooth="yes"/>
    </contour>
  </outline>
</glyph>
<glyph name="lambda" format="1">
  <advance width="516"/>
  <unicode hex="03BB"/>
  <outline>
    <contour>
      <point x="439" y="79"/>
      <point x="448" y="55"/>
      <point x="479" y="55" type="curve" smooth="yes"/>
      <point x="493" y="55"/>
      <point x="503" y="58"/>
      <point x="512" y="61" type="curve"/>
      <point x="526" y="5" type="line"/>
      <point x="507" y="-4"/>
      <point x="487" y="-10"/>
      <point x="464" y="-10" type="curve" smooth="yes"/>
      <point x="404" y="-10"/>
      <point x="379" y="25"/>
      <point x="360" y="77" type="curve" smooth="yes"/>
      <point x="216" y="466" type="line"/>
      <point x="269" y="466" type="line"/>
      <point x="98" y="0" type="line"/>
      <point x="15" y="0" type="line"/>
      <point x="208" y="482" type="line"/>
      <point x="153" y="615" type="line" smooth="yes"/>
      <point x="130" y="671"/>
      <point x="117" y="685"/>
      <point x="85" y="685" type="curve" smooth="yes"/>
      <point x="71" y="685"/>
      <point x="56" y="680"/>
      <point x="39" y="673" type="curve"/>
      <point x="21" y="729" type="line"/>
      <point x="45" y="741"/>
      <point x="74" y="749"/>
      <point x="98" y="749" type="curve" smooth="yes"/>
      <point x="161" y="749"/>
      <point x="193" y="722"/>
      <point x="224" y="641" type="curve" smooth="yes"/>
      <point x="424" y="118" type="line" smooth="yes"/>
    </contour>
  </outline>
</glyph>
<glyph name="mu" format="1">
  <advance width="586"/>
  <unicode hex="03BC"/>
  <outline>
    <contour>
      <point x="154" y="36" type="line"/>
      <point x="160" y="36" type="line"/>
      <point x="160" y="482" type="line"/>
      <point x="80" y="482" type="line"/>
      <point x="80" y="-217" type="line" smooth="yes"/>
      <point x="166" y="-217" type="line"/>
    </contour>
    <contour>
      <point x="480" y="482" type="line"/>
      <point x="400" y="482" type="line"/>
      <point x="400" y="104" type="line" smooth="yes"/>
      <point x="400" y="44"/>
      <point x="438" y="-6"/>
      <point x="501" y="-6" type="curve" smooth="yes"/>
      <point x="528" y="-6"/>
      <point x="557" y="1"/>
      <point x="576" y="10" type="curve"/>
      <point x="562" y="66" type="line"/>
      <point x="553" y="62"/>
      <point x="541" y="58"/>
      <point x="528" y="58" type="curve" smooth="yes"/>
      <point x="497" y="58"/>
      <point x="480" y="79"/>
      <point x="480" y="122" type="curve" smooth="yes"/>
    </contour>
    <contour>
      <point x="160" y="482" type="move"/>
      <point x="80" y="482" type="line"/>
    </contour>
    <contour>
      <point x="109" y="149" type="line"/>
      <point x="127" y="28"/>
      <point x="181" y="-10"/>
      <point x="265" y="-10" type="curve" smooth="yes"/>
      <point x="324" y="-10"/>
      <point x="394" y="23"/>
      <point x="440" y="73" type="curve"/>
      <point x="421" y="124" type="line"/>
      <point x="383" y="83"/>
      <point x="330" y="60"/>
      <point x="278" y="60" type="curve" smooth="yes"/>
      <point x="206" y="60"/>
      <point x="160" y="101"/>
      <point x="160" y="179" type="curve"/>
    </contour>
    <contour>
      <point x="458" y="10" type="move" name="ogonek"/>
    </contour>
    <contour>
      <point x="279" y="0" type="move" name="bottom"/>
    </contour>
    <contour>
      <point x="279" y="482" type="move" name="top"/>
    </contour>
  </outline>
</glyph>
<glyph name="pi" format="1">
  <advance width="615"/>
  <unicode hex="03C0"/>
  <outline>
    <contour>
      <point x="172" y="0" type="line"/>
      <point x="190" y="84"/>
      <point x="197" y="176"/>
      <point x="197" y="288" type="curve" smooth="yes"/>
      <point x="197" y="425" type="line"/>
      <point x="117" y="425" type="line"/>
      <point x="117" y="278" type="line" smooth="yes"/>
      <point x="117" y="182"/>
      <point x="108" y="80"/>
      <point x="85" y="0" type="curve"/>
    </contour>
    <contour>
      <point x="563" y="415" type="line"/>
      <point x="563" y="482" type="line"/>
      <point x="28" y="482" type="line"/>
      <point x="28" y="415" type="line"/>
    </contour>
    <contour>
      <point x="484" y="425" type="line"/>
      <point x="404" y="425" type="line"/>
      <point x="404" y="108" type="line" smooth="yes"/>
      <point x="404" y="39"/>
      <point x="443" y="-6"/>
      <point x="509" y="-6" type="curve" smooth="yes"/>
      <point x="535" y="-6"/>
      <point x="561" y="0"/>
      <point x="580" y="10" type="curve"/>
      <point x="565" y="65" type="line"/>
      <point x="553" y="60"/>
      <point x="544" y="58"/>
      <point x="532" y="58" type="curve" smooth="yes"/>
      <point x="498" y="58"/>
      <point x="484" y="81"/>
      <point x="484" y="118" type="curve" smooth="yes"/>
    </contour>
  </outline>
</glyph>
<glyph name="uni0429" format="1">
  <advance width="1050"/>
  <unicode hex="0429"/>
  <outline>
    <contour>
      <point x="1006" y="-178" type="line"/>
      <point x="1006" y="71" type="line"/>
      <point x="188" y="71" type="line"/>
      <point x="188" y="694" type="line"/>
      <point x="106" y="694" type="line"/>
      <point x="106" y="0" type="line"/>
      <point x="930" y="0" type="line"/>
      <point x="930" y="-178" type="line"/>
    </contour>
    <contour>
      <point x="554" y="30" type="line"/>
      <point x="554" y="694" type="line"/>
      <point x="472" y="694" type="line"/>
      <point x="472" y="30" type="line"/>
    </contour>
    <contour>
      <point x="920" y="30" type="line"/>
      <point x="920" y="694" type="line"/>
      <point x="838" y="694" type="line"/>
      <point x="838" y="30" type="line"/>
    </contour>
  </outline>
</glyph>
<glyph name="uni042E" format="1">
  <advance width="1030"/>
  <unicode hex="042E"/>
  <outline>
    <contour>
      <point x="828" y="-7"/>
      <point x="963" y="140"/>
      <point x="963" y="353" type="curve" smooth="yes"/>
      <point x="963" y="563"/>
      <point x="834" y="703"/>
      <point x="642" y="703" type="curve" smooth="yes"/>
      <point x="450" y="703"/>
      <point x="326" y="562"/>
      <point x="326" y="344" type="curve" smooth="yes"/>
      <point x="326" y="130"/>
      <point x="446" y="-7"/>
      <point x="633" y="-7" type="curve" smooth="yes"/>
    </contour>
    <contour>
      <point x="189" y="0" type="line"/>
      <point x="189" y="694" type="line"/>
      <point x="106" y="694" type="line"/>
      <point x="106" y="0" type="line"/>
    </contour>
    <contour>
      <point x="352" y="323" type="line"/>
      <point x="352" y="395" type="line"/>
      <point x="142" y="395" type="line"/>
      <point x="142" y="323" type="line"/>
    </contour>
    <contour>
      <point x="497" y="65"/>
      <point x="408" y="176"/>
      <point x="408" y="353" type="curve" smooth="yes"/>
      <point x="408" y="527"/>
      <point x="492" y="630"/>
      <point x="633" y="630" type="curve" smooth="yes"/>
      <point x="778" y="630"/>
      <point x="878" y="513"/>
      <point x="878" y="344" type="curve" smooth="yes"/>
      <point x="878" y="177"/>
      <point x="782" y="65"/>
      <point x="639" y="65" type="curve" smooth="yes"/>
    </contour>
    <contour>
      <point x="515" y="694" type="move" name="top"/>
    </contour>
  </outline>
</glyph>
<glyph name="uni0443" format="1">
  <advance width="510"/>
  <unicode hex="0443"/>
  <outline>
    <component base="y"/>
    <contour>
      <point x="255" y="482" type="move" name="top"/>
    </contour>
  </outline>
</glyph>
<glyph name="uni0446" format="1">
  <advance width="80"/>
  <unicode hex="0446"/>
  <outline>
    <contour>
      <point x="553" y="-126" type="line"/>
      <point x="553" y="66" type="line"/>
      <point x="164" y="66" type="line"/>
      <point x="164" y="482" type="line"/>
      <point x="85" y="482" type="line"/>
      <point x="85" y="0" type="line"/>
      <point x="481" y="0" type="line"/>
      <point x="481" y="-126" type="line"/>
    </contour>
    <contour>
      <point x="484" y="32" type="line"/>
      <point x="484" y="482" type="line"/>
      <point x="405" y="482" type="line"/>
      <point x="405" y="32" type="line"/>
    </contour>
  </outline>
</glyph>
<glyph name="uni045F" format="1">
  <advance width="70"/>
  <unicode hex="045F"/>
  <outline>
    <contour>
      <point x="330" y="-130" type="line"/>
      <point x="330" y="0" type="line"/>
      <point x="495" y="0" type="line"/>
      <point x="495" y="482" type="line"/>
      <point x="414" y="482" type="line"/>
      <point x="414" y="71" type="line"/>
      <point x="166" y="71" type="line"/>
      <point x="166" y="482" type="line"/>
      <point x="85" y="482" type="line"/>
      <point x="85" y="0" type="line"/>
      <point x="256" y="0" type="line"/>
      <point x="256" y="-130" type="line"/>
    </contour>
  </outline>
</glyph>
<glyph name="uni04AE" format="1">
  <advance width="610"/>
  <unicode hex="04AE"/>
  <outline>
    <component base="Y"/>
    <contour>
      <point x="310" y="271" type="move" name="center"/>
    </contour>
  </outline>
</glyph>
<glyph name="eight.dnom" format="1">
  <advance width="74"/>
  <note>
    eight
  </note>
  <outline>
    <contour>
      <point x="346" y="-7"/>
      <point x="420" y="46"/>
      <point x="420" y="126" type="curve" smooth="yes"/>
      <point x="420" y="281"/>
      <point x="141" y="246"/>
      <point x="141" y="355" type="curve" smooth="yes"/>
      <point x="141" y="393"/>
      <point x="176" y="418"/>
      <point x="230" y="418" type="curve" smooth="yes"/>
      <point x="286" y="418"/>
      <point x="326" y="391"/>
      <point x="326" y="351" type="curve" smooth="yes"/>
      <point x="326" y="311"/>
      <point x="287" y="279"/>
      <point x="229" y="270" type="curve"/>
      <point x="283" y="243" type="line"/>
      <point x="355" y="264"/>
      <point x="398" y="309"/>
      <point x="398" y="364" type="curve" smooth="yes"/>
      <point x="398" y="432"/>
      <point x="332" y="479"/>
      <point x="237" y="479" type="curve" smooth="yes"/>
      <point x="135" y="479"/>
      <point x="68" y="426"/>
      <point x="68" y="348" type="curve" smooth="yes"/>
      <point x="68" y="190"/>
      <point x="345" y="229"/>
      <point x="345" y="121" type="curve" smooth="yes"/>
      <point x="345" y="80"/>
      <point x="306" y="55"/>
      <point x="243" y="55" type="curve" smooth="yes"/>
      <point x="172" y="55"/>
      <point x="125" y="86"/>
      <point x="125" y="132" type="curve" smooth="yes"/>
      <point x="125" y="176"/>
      <point x="168" y="209"/>
      <point x="233" y="216" type="curve"/>
      <point x="187" y="245" type="line"/>
      <point x="104" y="232"/>
      <point x="51" y="183"/>
      <point x="51" y="120" type="curve" smooth="yes"/>
      <point x="51" y="44"/>
      <point x="125" y="-7"/>
      <point x="235" y="-7" type="curve" smooth="yes"/>
    </contour>
  </outline>
</glyph>
<glyph name="four.lf" format="1">
  <advance width="597"/>
  <outline>
    <contour>
      <point x="444" y="-10" type="line"/>
      <point x="444" y="694" type="line"/>
      <point x="368" y="694" type="line"/>
      <point x="27" y="206" type="line"/>
      <point x="27" y="164" type="line"/>
      <point x="569" y="164" type="line"/>
      <point x="569" y="232" type="line"/>
      <point x="113" y="232" type="line"/>
      <point x="108" y="214" type="line"/>
      <point x="366" y="584" type="line"/>
      <point x="366" y="567" type="line"/>
      <point x="366" y="-10" type="line"/>
    </contour>
  </outline>
</glyph>
<glyph name="seven.tosf" format="1">
  <advance width="0"/>
  <outline>
    <contour>
      <point x="228" y="-100" type="line"/>
      <point x="531" y="555" type="line"/>
      <point x="531" y="594" type="line"/>
      <point x="47" y="594" type="line"/>
      <point x="47" y="525" type="line"/>
      <point x="468" y="525" type="line"/>
      <point x="448" y="554" type="line"/>
      <point x="144" y="-100" type="line"/>
    </contour>
  </outline>
</glyph>
<glyph name="slashshortcomb.case" format="1">
  <advance width="355"/>
  <outline>
    <contour>
      <point x="324" y="321" type="line"/>
      <point x="291" y="379" type="line"/>
      <point x="38" y="241" type="line"/>
      <point x="72" y="184" type="line"/>
    </contour>
    <contour>
      <point x="181" y="282" type="move" name="_center"/>
    </contour>
  </outline>
</glyph>
<glyph name="tildecomb.case" format="1">
  <advance width="480"/>
  <outline>
    <component base="tildecomb" xOffset="4" yOffset="190"/>
    <contour>
      <point x="241" y="876" type="move" name="top"/>
    </contour>
    <contour>
      <point x="240" y="694" type="move" name="_top"/>
    </contour>
  </outline>
</glyph>
<glyph name="uni0304.case" format="1">
  <advance width="483"/>
  <outline>
    <component base="uni0304" xOffset="-3" yOffset="182"/>
    <contour>
      <point x="242" y="857" type="move" name="top"/>
    </contour>
    <contour>
      <point x="242" y="694" type="move" name="_top"/>
    </contour>
  </outline>
</glyph>
